<svg xmlns="http://www.w3.org/2000/svg" viewBox="0 0 128 128">
  <style>
    .bg { fill: #000; }
    .fg { fill: #fff; }
    @media (prefers-color-scheme: dark) {
      .bg { fill: #fff; }
      .fg { fill: #000; }
    }
  </style>
  <rect x="0" y="0" width="128" height="128" class="bg" />
  <rect x="20.0" y="44.0" width="4.0" height="4.0" class="fg" /><rect x="24.0" y="44.0" width="4.0" height="4.0" class="fg" /><rect x="28.0" y="44.0" width="4.0" height="4.0" class="fg" /><rect x="48.0" y="44.0" width="4.0" height="4.0" class="fg" /><rect x="52.0" y="44.0" width="4.0" height="4.0" class="fg" /><rect x="56.0" y="44.0" width="4.0" height="4.0" class="fg" /><rect x="60.0" y="44.0" width="4.0" height="4.0" class="fg" /><rect x="64.0" y="44.0" width="4.0" height="4.0" class="fg" /><rect x="92.0" y="44.0" width="4.0" height="4.0" class="fg" /><rect x="96.0" y="44.0" width="4.0" height="4.0" class="fg" /><rect x="100.0" y="44.0" width="4.0" height="4.0" class="fg" /><rect x="12.0" y="48.0" width="4.0" height="4.0" class="fg" /><rect x="16.0" y="48.0" width="4.0" height="4.0" class="fg" /><rect x="32.0" y="48.0" width="4.0" height="4.0" class="fg" /><rect x="36.0" y="48.0" width="4.0" height="4.0" class="fg" /><rect x="48.0" y="48.0" width="4.0" height="4.0" class="fg" /><rect x="52.0" y="48.0" width="4.0" height="4.0" class="fg" /><rect x="68.0" y="48.0" width="4.0" height="4.0" class="fg" /><rect x="72.0" y="48.0" width="4.0" height="4.0" class="fg" /><rect x="84.0" y="48.0" width="4.0" height="4.0" class="fg" /><rect x="88.0" y="48.0" width="4.0" height="4.0" class="fg" /><rect x="104.0" y="48.0" width="4.0" height="4.0" class="fg" /><rect x="108.0" y="48.0" width="4.0" height="4.0" class="fg" /><rect x="12.0" y="52.0" width="4.0" height="4.0" class="fg" /><rect x="16.0" y="52.0" width="4.0" height="4.0" class="fg" /><rect x="48.0" y="52.0" width="4.0" height="4.0" class="fg" /><rect x="52.0" y="52.0" width="4.0" height="4.0" class="fg" /><rect x="68.0" y="52.0" width="4.0" height="4.0" class="fg" /><rect x="72.0" y="52.0" width="4.0" height="4.0" class="fg" /><rect x="84.0" y="52.0" width="4.0" height="4.0" class="fg" /><rect x="88.0" y="52.0" width="4.0" height="4.0" class="fg" /><rect x="16.0" y="56.0" width="4.0" height="4.0" class="fg" /><rect x="48.0" y="56.0" width="4.0" height="4.0" class="fg" /><rect x="52.0" y="56.0" width="4.0" height="4.0" class="fg" /><rect x="68.0" y="56.0" width="4.0" height="4.0" class="fg" /><rect x="72.0" y="56.0" width="4.0" height="4.0" class="fg" /><rect x="88.0" y="56.0" width="4.0" height="4.0" class="fg" /><rect x="20.0" y="60.0" width="4.0" height="4.0" class="fg" /><rect x="24.0" y="60.0" width="4.0" height="4.0" class="fg" /><rect x="28.0" y="60.0" width="4.0" height="4.0" class="fg" /><rect x="48.0" y="60.0" width="4.0" height="4.0" class="fg" /><rect x="52.0" y="60.0" width="4.0" height="4.0" class="fg" /><rect x="68.0" y="60.0" width="4.0" height="4.0" class="fg" /><rect x="72.0" y="60.0" width="4.0" height="4.0" class="fg" /><rect x="92.0" y="60.0" width="4.0" height="4.0" class="fg" /><rect x="96.0" y="60.0" width="4.0" height="4.0" class="fg" /><rect x="100.0" y="60.0" width="4.0" height="4.0" class="fg" /><rect x="32.0" y="64.0" width="4.0" height="4.0" class="fg" /><rect x="36.0" y="64.0" width="4.0" height="4.0" class="fg" /><rect x="48.0" y="64.0" width="4.0" height="4.0" class="fg" /><rect x="52.0" y="64.0" width="4.0" height="4.0" class="fg" /><rect x="56.0" y="64.0" width="4.0" height="4.0" class="fg" /><rect x="60.0" y="64.0" width="4.0" height="4.0" class="fg" /><rect x="64.0" y="64.0" width="4.0" height="4.0" class="fg" /><rect x="104.0" y="64.0" width="4.0" height="4.0" class="fg" /><rect x="108.0" y="64.0" width="4.0" height="4.0" class="fg" /><rect x="32.0" y="68.0" width="4.0" height="4.0" class="fg" /><rect x="36.0" y="68.0" width="4.0" height="4.0" class="fg" /><rect x="48.0" y="68.0" width="4.0" height="4.0" class="fg" /><rect x="52.0" y="68.0" width="4.0" height="4.0" class="fg" /><rect x="104.0" y="68.0" width="4.0" height="4.0" class="fg" /><rect x="108.0" y="68.0" width="4.0" height="4.0" class="fg" /><rect x="32.0" y="72.0" width="4.0" height="4.0" class="fg" /><rect x="36.0" y="72.0" width="4.0" height="4.0" class="fg" /><rect x="48.0" y="72.0" width="4.0" height="4.0" class="fg" /><rect x="52.0" y="72.0" width="4.0" height="4.0" class="fg" /><rect x="104.0" y="72.0" width="4.0" height="4.0" class="fg" /><rect x="108.0" y="72.0" width="4.0" height="4.0" class="fg" /><rect x="12.0" y="76.0" width="4.0" height="4.0" class="fg" /><rect x="16.0" y="76.0" width="4.0" height="4.0" class="fg" /><rect x="32.0" y="76.0" width="4.0" height="4.0" class="fg" /><rect x="48.0" y="76.0" width="4.0" height="4.0" class="fg" /><rect x="52.0" y="76.0" width="4.0" height="4.0" class="fg" /><rect x="84.0" y="76.0" width="4.0" height="4.0" class="fg" /><rect x="88.0" y="76.0" width="4.0" height="4.0" class="fg" /><rect x="104.0" y="76.0" width="4.0" height="4.0" class="fg" /><rect x="20.0" y="80.0" width="4.0" height="4.0" class="fg" /><rect x="24.0" y="80.0" width="4.0" height="4.0" class="fg" /><rect x="28.0" y="80.0" width="4.0" height="4.0" class="fg" /><rect x="48.0" y="80.0" width="4.0" height="4.0" class="fg" /><rect x="52.0" y="80.0" width="4.0" height="4.0" class="fg" /><rect x="92.0" y="80.0" width="4.0" height="4.0" class="fg" /><rect x="96.0" y="80.0" width="4.0" height="4.0" class="fg" /><rect x="100.0" y="80.0" width="4.0" height="4.0" class="fg" />
</svg>